<?xml version="1.0" standalone="no"?>
<!DOCTYPE svg PUBLIC "-//W3C//DTD SVG 20010904//EN"
 "http://www.w3.org/TR/2001/REC-SVG-20010904/DTD/svg10.dtd">
<svg version="1.0" xmlns="http://www.w3.org/2000/svg"
 width="216.000000pt" height="216.000000pt" viewBox="0 0 216.000000 216.000000"
 preserveAspectRatio="xMidYMid meet">
<metadata>
Created by potrace 1.11, written by Peter Selinger 2001-2013
</metadata>
<g transform="translate(0.000000,216.000000) scale(0.100000,-0.100000)"
fill="#000000" stroke="none">
<path d="M983 2024 c-127 -52 -194 -152 -189 -285 3 -107 61 -195 161 -246 68
-35 178 -37 246 -6 136 64 202 220 154 364 -49 146 -230 231 -372 173z m174
-156 c90 -55 80 -193 -19 -241 -81 -40 -179 14 -193 107 -18 116 111 197 212
134z"/>
<path d="M66 1507 c-54 -54 -47 -65 184 -297 226 -225 236 -232 290 -191 18
14 24 29 24 56 0 34 -13 49 -204 240 -227 226 -247 239 -294 192z"/>
<path d="M2015 1518 c-24 -14 -372 -360 -401 -400 -26 -35 -21 -71 14 -98 51
-41 62 -34 275 178 110 108 205 210 212 226 16 38 3 79 -31 95 -31 14 -44 14
-69 -1z"/>
<path d="M761 563 c-157 -118 -299 -224 -316 -236 -16 -12 -47 -39 -68 -59
-32 -31 -37 -41 -31 -65 10 -42 33 -63 70 -63 26 0 63 22 183 112 82 62 160
121 173 130 13 10 86 65 163 123 129 97 165 118 165 97 0 -4 15 -16 33 -27 17
-10 34 -21 37 -25 3 -4 55 -43 115 -88 61 -45 121 -90 135 -101 14 -10 68 -51
120 -90 52 -39 100 -74 105 -78 57 -45 72 -53 101 -53 55 0 94 70 62 112 -14
18 -652 499 -684 516 -50 26 -69 15 -363 -205z"/>
</g>
</svg>
